<?xml version="1.0" encoding="UTF-8" standalone="no"?>
<!-- Created with Inkscape (http://www.inkscape.org/) -->

<svg
   xmlns:dc="http://purl.org/dc/elements/1.1/"
   xmlns:cc="http://creativecommons.org/ns#"
   xmlns:rdf="http://www.w3.org/1999/02/22-rdf-syntax-ns#"
   xmlns:svg="http://www.w3.org/2000/svg"
   xmlns="http://www.w3.org/2000/svg"
   xmlns:sodipodi="http://sodipodi.sourceforge.net/DTD/sodipodi-0.dtd"
   xmlns:inkscape="http://www.inkscape.org/namespaces/inkscape"
   version="1.1"
   id="svg2"
   xml:space="preserve"
   width="540"
   height="540"
   viewBox="0 0 539.99999 540"
   sodipodi:docname="logo_jcsml.svg"
   inkscape:version="0.92.5 (2060ec1f9f, 2020-04-08)"><metadata
     id="metadata8"><rdf:RDF><cc:Work
         rdf:about=""><dc:format>image/svg+xml</dc:format><dc:type
           rdf:resource="http://purl.org/dc/dcmitype/StillImage" /><dc:title /></cc:Work></rdf:RDF></metadata><defs
     id="defs6"><clipPath
       clipPathUnits="userSpaceOnUse"
       id="clipPath20"><path
         d="M 0,595.276 H 841.89 V 0 H 0 Z"
         id="path18"
         inkscape:connector-curvature="0" /></clipPath><clipPath
       clipPathUnits="userSpaceOnUse"
       id="clipPath48"><path
         d="M 219.473,77.48 H 622.416 V 480 H 219.473 Z"
         id="path46"
         inkscape:connector-curvature="0" /></clipPath></defs><sodipodi:namedview
     pagecolor="#ffffff"
     bordercolor="#666666"
     borderopacity="1"
     objecttolerance="10"
     gridtolerance="10"
     guidetolerance="10"
     inkscape:pageopacity="0"
     inkscape:pageshadow="2"
     inkscape:window-width="1848"
     inkscape:window-height="1043"
     id="namedview4"
     showgrid="false"
     inkscape:zoom="1.1893642"
     inkscape:cx="288.69411"
     inkscape:cy="264.02509"
     inkscape:window-x="72"
     inkscape:window-y="0"
     inkscape:window-maximized="1"
     inkscape:current-layer="g10" /><g
     id="g10"
     inkscape:groupmode="layer"
     inkscape:label="progetto_JC_2"
     transform="matrix(1.3333333,0,0,-1.3333333,0,539.99998)"><g
       id="g50"
       transform="translate(202.50041,1.25409)"><path
         d="m 0,0 c -27.183,0 -53.553,5.324 -78.378,15.824 -23.978,10.142 -45.512,24.66 -64.004,43.153 -18.493,18.492 -33.011,40.026 -43.153,64.004 -10.5,24.824 -15.824,51.194 -15.824,78.378 0,27.183 5.324,53.553 15.824,78.377 10.142,23.978 24.66,45.512 43.153,64.005 18.492,18.492 40.026,33.011 64.004,43.153 24.825,10.499 51.195,15.823 78.378,15.823 27.183,0 53.553,-5.324 78.378,-15.823 23.977,-10.142 45.512,-24.661 64.004,-43.153 18.493,-18.493 33.011,-40.027 43.153,-64.005 10.5,-24.824 15.824,-51.194 15.824,-78.377 0,-27.184 -5.324,-53.554 -15.824,-78.378 C 175.393,99.003 160.875,77.469 142.382,58.977 123.89,40.484 102.355,25.966 78.378,15.824 53.553,5.324 27.183,0 0,0"
         style="fill:#45658e;fill-opacity:1;fill-rule:nonzero;stroke:none"
         id="path52"
         inkscape:connector-curvature="0" /></g><g
       id="g54"
       transform="translate(202.50041,404.08439)"><path
         d="m 0,0 c -111.27,0 -201.472,-90.202 -201.472,-201.472 0,-111.27 90.202,-201.471 201.472,-201.471 111.27,0 201.472,90.201 201.472,201.471 C 201.472,-90.202 111.27,0 0,0 m 0,-0.226 c 13.654,0 27.3,-1.376 40.558,-4.089 12.921,-2.644 25.631,-6.589 37.776,-11.726 11.924,-5.044 23.426,-11.286 34.184,-18.555 10.656,-7.199 20.677,-15.467 29.784,-24.574 9.107,-9.106 17.375,-19.127 24.574,-29.784 7.268,-10.758 13.511,-22.259 18.555,-34.184 5.137,-12.145 9.082,-24.854 11.726,-37.776 2.713,-13.258 4.088,-26.903 4.088,-40.558 0,-13.654 -1.375,-27.3 -4.088,-40.558 -2.644,-12.921 -6.589,-25.631 -11.726,-37.775 -5.044,-11.925 -11.287,-23.426 -18.555,-34.185 -7.199,-10.656 -15.467,-20.677 -24.574,-29.784 -9.107,-9.107 -19.128,-17.374 -29.784,-24.574 -10.758,-7.268 -22.26,-13.511 -34.184,-18.554 -12.145,-5.137 -24.855,-9.083 -37.776,-11.726 -13.258,-2.714 -26.904,-4.089 -40.558,-4.089 -13.654,0 -27.3,1.375 -40.558,4.089 -12.921,2.643 -25.631,6.589 -37.776,11.726 -11.924,5.043 -23.426,11.286 -34.184,18.554 -10.656,7.2 -20.677,15.467 -29.784,24.574 -9.107,9.107 -17.375,19.128 -24.574,29.784 -7.268,10.759 -13.511,22.26 -18.555,34.185 -5.137,12.144 -9.082,24.854 -11.726,37.775 -2.713,13.258 -4.088,26.904 -4.088,40.558 0,13.655 1.375,27.3 4.088,40.558 2.644,12.922 6.589,25.631 11.726,37.776 5.044,11.925 11.287,23.426 18.555,34.184 7.199,10.657 15.467,20.678 24.574,29.784 9.107,9.107 19.128,17.375 29.784,24.574 10.758,7.269 22.26,13.511 34.184,18.555 12.145,5.137 24.855,9.082 37.776,11.726 13.258,2.713 26.904,4.089 40.558,4.089"
         style="fill:#000000;fill-opacity:1;fill-rule:nonzero;stroke:none"
         id="path56"
         inkscape:connector-curvature="0" /></g><g
       id="g58"
       transform="translate(57.45881,152.69569)"><path
         d="m 0,0 c 0,4.088 -0.065,8.177 0.032,12.262 0.038,1.638 -0.326,2.696 -1.857,3.627 -4.857,2.955 -6.844,7.565 -6.889,13.1 -0.039,4.83 0.006,9.659 -0.004,14.489 -0.012,5.701 2.123,10.332 7.012,13.403 1.403,0.881 1.776,1.855 1.728,3.352 -0.081,2.528 -0.041,5.059 -0.014,7.589 0.022,2.049 0.359,4.031 1.425,6.369 2.839,-3.808 6.039,-6.525 9.89,-8.437 1.716,-0.853 0.784,-2.11 0.466,-3.269 C 9.376,53.697 7.624,44.811 8.057,35.636 8.181,33.002 8.488,30.37 8.855,27.757 9.096,26.04 9.95,24.526 11.969,24.813 c 2.168,0.309 2.565,1.895 2.237,3.889 -1.756,10.668 -0.154,21.043 2.686,31.337 0.724,2.626 1.731,3.748 4.731,3.391 5.011,-0.597 9.847,0.571 14.309,2.975 1.629,0.877 3.513,1.952 2.259,4.235 -1.177,2.141 -2.919,1.431 -4.768,0.594 -7.877,-3.564 -15.619,-3.384 -22.951,1.454 -1.397,0.921 -2.493,2.37 -3.552,3.713 -1.7,2.154 -2.497,4.286 1.071,5.457 1.736,0.57 1.648,1.961 1.643,3.368 -0.015,4.944 -0.024,9.889 -0.006,14.833 0.023,6.293 0.889,7.434 6.636,9.413 16.96,5.838 30.385,16.459 41.205,30.568 1.131,1.475 2.5,3.222 0.764,4.896 -2.126,2.052 -3.643,0.427 -5.015,-1.377 -7.328,-9.634 -16.13,-17.614 -26.739,-23.526 -1.807,-1.007 -3.662,-1.934 -5.537,-2.809 -0.768,-0.36 -1.64,-1.326 -2.466,-0.52 -0.733,0.716 -0.075,1.769 0.147,2.612 1.257,4.776 3.774,6.469 9.307,6.065 5.25,-0.384 4.894,-1.145 4.934,4.731 0.037,5.289 0.212,10.589 -0.046,15.867 -0.432,8.813 4.446,14.135 11.448,18.12 2.086,1.187 4.316,2.452 6.623,2.844 3.877,0.659 4.4,2.797 4.319,6.203 -0.201,8.419 2.95,13.2 10.665,16.191 2.265,0.878 1.703,2.419 1.831,3.854 0.618,6.884 4.676,10.401 11.214,9.651 0.985,-0.113 1.842,-0.081 1.388,-1.547 -2.853,-9.222 -4.452,-18.664 -4.531,-28.265 -1.29,-0.24 -1.735,0.579 -2.345,1.027 -1.381,1.013 -2.774,1.321 -3.972,-0.116 -1.285,-1.542 -0.744,-2.981 0.602,-4.232 0.926,-0.861 1.87,-1.704 2.772,-2.59 11.477,-11.29 12.49,-23.296 2.963,-36.417 -6.009,-8.276 -13.725,-14.823 -21.854,-20.892 -4.42,-3.301 -9.001,-6.385 -13.516,-9.558 -1.651,-1.161 -3.544,-2.445 -2.11,-4.692 1.584,-2.481 3.502,-1.125 5.306,0.103 8.464,5.762 16.808,11.676 24.382,18.602 0.578,0.528 1.291,0.908 2.098,1.466 2.827,-5.298 3.134,-10.642 1.467,-16.141 -2.201,-7.263 -6.674,-13.03 -12.16,-18.102 -0.674,-0.623 -1.437,-1.157 -2.071,-1.816 -1.101,-1.142 -1.279,-2.488 -0.267,-3.728 1.017,-1.246 2.287,-1.246 3.702,-0.456 13.714,7.656 20.75,28.007 14.481,42.43 -0.877,2.018 -0.306,3.12 0.913,4.523 4.941,5.683 9.226,11.742 10.915,19.292 1.438,6.424 1.057,12.731 -2.318,18.363 -2.898,4.836 -3.37,9.956 -3.297,15.249 0.118,8.569 1.776,16.896 4.504,25.016 0.407,1.211 0.617,2.537 2.343,2.463 9.851,-0.423 19.807,1.174 29.546,-1.375 9.808,-2.567 15.017,-8.881 15.538,-18.943 0.22,-4.243 0.083,-8.507 0.053,-12.761 -0.006,-0.71 0.302,-2.145 -0.714,-1.944 -4.658,0.924 -4.074,-2.677 -4.446,-5.116 -1.232,-8.072 -4.538,-15.147 -9.761,-21.36 -1.37,-1.628 -2.782,-3.252 -5.021,-4.597 -0.291,4.867 -0.664,9.293 -2.247,13.506 -1.434,3.82 -3.61,6.938 -7.633,8.35 -1.709,0.6 -3.524,0.925 -4.392,-1.234 -0.768,-1.91 0.405,-2.987 2.04,-3.729 4.976,-2.26 5.612,-6.931 6.234,-11.51 1.138,-8.38 0.332,-16.764 -0.364,-25.117 -0.48,-5.751 -0.136,-11.26 2.72,-16.384 0.774,-1.39 0.561,-2.581 -0.055,-3.91 -8.289,-17.89 -21.19,-30.591 -40.406,-36.458 -6.675,-2.038 -13.41,-3.086 -20.35,-3.05 -2.08,0.01 -4.19,-0.125 -4.183,-2.849 0.006,-2.483 2.059,-2.793 3.962,-2.83 5.312,-0.102 10.571,0.467 15.745,1.664 1.683,0.39 2.632,0.263 2.625,-1.795 C 67.181,44.81 66.902,38.282 64.686,31.998 62.235,25.047 57.294,20.795 50.297,18.824 45.287,17.413 40.119,17.013 34.959,16.622 21.252,15.584 8.052,13.517 0,0"
         style="fill:#fcfcfc;fill-opacity:1;fill-rule:nonzero;stroke:none"
         id="path60"
         inkscape:connector-curvature="0" /></g><g
       id="g62"
       transform="translate(190.34981,251.05529)"
       style="fill:#ffffff;fill-opacity:1"><path
         d="m 0,0 c 0.962,-1.465 0.602,-2.754 0.605,-3.967 0.02,-9.198 -0.257,-18.405 0.083,-27.589 0.18,-4.857 -1.363,-8.731 -4.297,-12.312 -0.582,-0.711 -1.123,-1.459 -1.733,-2.145 -1.754,-1.969 -3.449,-5.208 -5.699,-5.12 -2.302,0.09 -2.11,3.988 -3.272,6.096 -1.894,3.432 -3.645,6.924 -6.798,9.435 -1.672,1.332 -3.479,2.242 -5.061,0.097 -1.398,-1.896 0.001,-3.139 1.472,-4.25 3.18,-2.405 4.593,-5.988 6.001,-9.485 6.558,-16.288 8.246,-33.118 5.182,-50.393 -5.41,-30.499 -32.519,-38.944 -53.675,-33.218 -8.796,2.381 -17.047,6.215 -25.561,9.348 -1.832,0.675 -3.69,1.296 -5.567,1.833 -9.156,2.617 -17.342,1.474 -24.004,-6.755 -0.79,2.34 -0.303,4.352 -0.437,6.29 -0.365,5.302 -0.442,10.697 -5.757,13.987 -1.595,0.987 -0.866,2.333 -0.369,3.661 3.768,10.087 11.667,14.608 21.75,16.245 7.719,1.252 15.601,1.133 23.268,2.809 3.385,0.74 6.766,1.593 9.647,3.544 2.08,1.408 3.045,0.836 4.274,-1.086 5.445,-8.516 12.515,-15.242 21.952,-19.253 2.451,-1.042 5.016,-1.633 7.602,-2.197 2.014,-0.441 3.898,-0.308 4.463,1.951 0.606,2.417 -1.208,3.144 -3.19,3.511 -12.353,2.283 -20.578,10.085 -27.03,20.238 -0.725,1.14 -1.578,2.187 -0.511,3.728 5.495,7.934 6.501,17.023 6.585,26.327 0.009,0.92 0.079,1.846 -0.004,2.758 -0.194,2.109 0.574,3.238 2.7,4.05 17.113,6.541 29.519,18.308 37.644,34.613 1.23,2.469 2.159,3.631 5.336,2.64 C -8.903,-6.323 -4.407,-3.359 0,0"
         style="fill:#ffffff;fill-opacity:1;fill-rule:nonzero;stroke:none"
         id="path64"
         inkscape:connector-curvature="0" /></g><g
       id="g66"
       transform="translate(83.98361,100.62859)"
       style="fill:#ffffff;fill-opacity:1"><path
         d="m 0,0 c -3.329,0.033 -6.616,0.095 -9.926,0.852 -4.947,1.132 -8.849,8.64 -4.658,13.088 1.162,1.232 1.812,2.929 2.829,4.315 3.605,4.914 8.446,6.874 14.476,5.888 7.453,-1.22 14.261,-4.341 21.165,-7.173 9.968,-4.087 20.113,-7.255 31.101,-6.528 4.163,0.276 8.217,1.131 12.136,2.414 2.757,0.902 3.121,0.066 2.858,-2.414 -0.966,-9.103 -0.149,-18.069 4.579,-26.029 2.246,-3.781 1.98,-6.909 0.643,-10.61 -2.989,-8.283 -8.23,-14.785 -15.229,-19.984 -1.243,-0.924 -2.385,-1.961 -3.563,0.174 -0.847,1.535 -2.466,1.434 -3.989,1.426 -4.043,-0.019 -8.051,0.409 -11.942,1.495 -6.78,1.895 -10.022,6.71 -9.362,13.322 0.209,2.09 0.989,2.933 3.127,3.179 8.636,0.996 16.872,3.434 24.636,7.383 0.918,0.468 1.844,0.962 2.652,1.591 1.271,0.991 1.441,2.351 0.667,3.695 -0.748,1.3 -2.05,1.497 -3.319,0.941 -1.893,-0.828 -3.68,-1.897 -5.566,-2.746 -11.278,-5.08 -23.084,-6.743 -35.363,-5.476 -1.722,0.178 -2.712,1.059 -3.559,2.342 -1.693,2.567 -2.311,5.469 -2.664,8.467 C 10.554,-0.395 10.112,-0.014 0,0"
         style="fill:#ffffff;fill-opacity:1;fill-rule:nonzero;stroke:none"
         id="path68"
         inkscape:connector-curvature="0" /></g><g
       id="g70"
       transform="translate(190.34611,202.64139)"
       style="fill:#ffffff;fill-opacity:1"><path
         d="m 0,0 c 0.833,-1.646 0.564,-2.924 0.565,-4.153 0.019,-40.014 -0.014,-80.028 0.083,-120.041 0.008,-3.3 -0.855,-4.33 -4.283,-4.13 -17.041,0.994 -27.067,11.542 -27.652,29.466 -0.056,1.72 -0.002,3.449 0.09,5.169 0.268,4.995 1.891,8.825 6.348,12.118 11.698,8.641 16.028,21.449 17.812,35.286 1.441,11.182 0.519,22.266 -2.08,33.2 -0.62,2.61 -0.34,4.354 2.009,6.095 C -4.562,-5.103 -2.521,-2.533 0,0"
         style="fill:#ffffff;fill-opacity:1;fill-rule:nonzero;stroke:none"
         id="path72"
         inkscape:connector-curvature="0" /></g><g
       id="g74"
       transform="translate(190.79591,56.62969)"
       style="fill:#ffffff;fill-opacity:1"><path
         d="m 0,0 c 0,-3.325 0.168,-6.661 -0.037,-9.974 -0.365,-5.9 -3.512,-10.04 -9.108,-11.688 -8.964,-2.64 -18.112,-2.977 -27.116,-0.14 -5.096,1.606 -8.447,5.297 -10.5,10.239 -0.661,1.59 -0.37,2.479 1.039,3.406 9.525,6.266 16.289,14.719 19.896,25.579 0.546,1.643 1.186,1.665 2.423,0.744 6.171,-4.592 13.322,-5.967 20.791,-6.06 C -0.505,12.079 0.235,11.359 0.159,9.295 0.044,6.201 0.129,3.099 0.129,0 0.086,0 0.043,0 0,0"
         style="fill:#ffffff;fill-opacity:1;fill-rule:nonzero;stroke:none"
         id="path76"
         inkscape:connector-curvature="0" /></g><g
       id="g78"
       transform="translate(191.04491,308.80429)"
       style="fill:#ffffff;fill-opacity:1"><path
         d="m 0,0 c -0.016,-12.618 -0.032,-25.235 -0.048,-37.853 -0.002,-1.723 -0.23,-3.482 0.039,-5.161 1.015,-6.335 -2.755,-9.823 -7.459,-12.674 -4.89,-2.964 -9.493,-1.464 -11.967,3.716 -1.371,2.871 -1.725,5.933 -1.547,9.071 0.266,4.697 0.586,9.392 0.817,14.091 0.054,1.108 0.317,1.994 1.225,2.687 C -10.027,-19.322 -3.796,-10.633 0,0"
         style="fill:#ffffff;fill-opacity:1;fill-rule:nonzero;stroke:none"
         id="path80"
         inkscape:connector-curvature="0" /></g><g
       id="g82"
       transform="translate(333.17911,314.49119)"
       style="fill:#ffffff;fill-opacity:1"><path
         d="m 0,0 c 5.106,0.029 -16.537,12.321 -16.537,12.321 0,0 -12.462,11.406 -17.642,13.132 -3.312,1.103 -13.926,0 -13.926,0 0,0 -10.785,-1.716 -13.807,0 -7.071,4.013 -13.436,21.941 -20.755,25.452 -9.263,4.443 -40.885,0 -40.885,0 V 0 c 0,0 34.382,-0.093 69.522,-0.1 C -34.265,-0.104 -14.26,-0.081 0,0"
         style="fill:#ffffff;fill-opacity:1;fill-rule:nonzero;stroke:none"
         id="path84"
         inkscape:connector-curvature="0" /></g><g
       id="g86"
       transform="translate(333.17911,314.49119)"
       style="fill:#ffffff;fill-opacity:1"><path
         d="m 0,0 c 5.106,0.029 -16.537,12.321 -16.537,12.321 0,0 -12.462,11.406 -17.642,13.132 -3.312,1.103 -13.926,0 -13.926,0 0,0 -10.785,-1.716 -13.807,0 -7.071,4.013 -13.436,21.941 -20.755,25.452 -9.263,4.443 -40.885,0 -40.885,0 V 0 c 0,0 34.382,-0.093 69.522,-0.1 C -34.265,-0.104 -14.26,-0.081 0,0 Z"
         style="fill:#ffffff;stroke:#ffffff;stroke-width:9.05000019;stroke-linecap:butt;stroke-linejoin:miter;stroke-miterlimit:10;stroke-dasharray:none;stroke-opacity:1;fill-opacity:1"
         id="path88"
         inkscape:connector-curvature="0" /></g><g
       id="g90"
       transform="translate(208.49591,302.27389)"
       style="stroke:#ffffff;stroke-opacity:1"><path
         d="m 0,0 -0.339,-269.345 0.032,3.28 c 0,0 86.733,-3.167 88.09,17.874 0,0 49.322,244.797 35.747,245.855 -17.151,1.337 -126.924,0.074 -126.924,0.074"
         style="fill:none;stroke:#ffffff;stroke-width:6.78700018;stroke-linecap:butt;stroke-linejoin:miter;stroke-miterlimit:10;stroke-dasharray:none;stroke-opacity:1"
         id="path92"
         inkscape:connector-curvature="0" /></g><g
       id="g94"
       transform="translate(300.10191,314.39929)"><path
         d="m 0,0 c 5.681,-6.388 6.822,-19.662 0,-34.192 -2.918,-6.214 -12.131,-15.939 -14.682,-22.051 -2.767,-6.627 2.827,-28.655 -4.349,-28.394 -12.603,0.457 0.235,37.836 0,50.445 -0.183,9.824 -11.023,37.725 -11.023,37.725 0,0 25.027,2.12 30.054,-3.533"
         style="fill:#fcfdf6;fill-opacity:1;fill-rule:nonzero;stroke:none"
         id="path96"
         inkscape:connector-curvature="0" /></g><g
       id="g98"
       transform="translate(300.10191,314.39929)"
       style="fill:#ffffff;fill-opacity:1;stroke:#ffffff;stroke-opacity:1"><path
         d="m 0,0 c 5.681,-6.388 6.822,-19.662 0,-34.192 -2.918,-6.214 -12.131,-15.939 -14.682,-22.051 -2.767,-6.627 2.827,-28.655 -4.349,-28.394 -12.603,0.457 0.235,37.836 0,50.445 -0.183,9.824 -11.023,37.725 -11.023,37.725 0,0 25.027,2.12 30.054,-3.533 z"
         style="fill:#ffffff;stroke:#ffffff;stroke-width:9.05000019;stroke-linecap:butt;stroke-linejoin:miter;stroke-miterlimit:10;stroke-dasharray:none;stroke-opacity:1;fill-opacity:1"
         id="path100"
         inkscape:connector-curvature="0" /></g></g></svg>